<svg xmlns="http://www.w3.org/2000/svg" height="800" width="1200" xml:space="preserve" y="0" x="0" id="Artwork" version="1.1" viewBox="-82.995 -22.8 719.29 136.8"><style id="style6458" type="text/css">.st0{fill:#007940}</style><g transform="translate(0 -.7)" id="g6482"><g id="g6472"><path id="polygon6460" class="st0" d="M215.6 90.9l-16.1-56.2h16.2l8.6 37.5 9.6-37.5H245l9.6 37.5 8.5-37.5h16.3l-16.1 56.2H248l-8.6-35.2-8.5 35.2z"/><path id="polygon6462" class="st0" d="M324.4 46.9h-26.8v9.4h26.2v12.3h-26.2v10.1h26.8v12.2h-41.3V34.7h41.3z"/><path id="path6464" d="M331.6 34.7h31.9c11.1 0 16.4 7.3 16.4 14.3 0 7-4.3 11.7-9.6 12.9 6 .9 10.7 6.7 10.7 13.7 0 8.2-5.5 15.3-16.5 15.3h-32.9zm28.6 21.7c3 0 5-2.1 5-4.9 0-2.8-2-4.8-5-4.8h-14.1v9.7zm.5 22.5c3.5 0 5.6-2.1 5.6-5.1 0-2.9-2-5.3-5.6-5.3h-14.6V79z" class="st0"/><path id="path6466" d="M384 62.8c0-17.4 13.2-29.1 30-29.1 14 0 21.3 7.7 25 15.1l-12.5 5.9c-1.9-4.5-6.7-8.2-12.5-8.2-8.8 0-15.3 7.1-15.3 16.3 0 9.2 6.5 16.3 15.3 16.3 5.8 0 10.6-3.7 12.5-8.2l12.5 5.9c-3.6 7.3-11 15.1-25 15.1-16.9 0-30-11.8-30-29.1" class="st0"/><path id="path6468" d="M471.1 33.7c17.2 0 30 12 30 29.1s-12.8 29.1-30 29.1-30.1-12-30.1-29.1 12.9-29.1 30.1-29.1m0 12.8c-9.4 0-15.3 7.1-15.3 16.3 0 9.1 6 16.3 15.3 16.3s15.3-7.2 15.3-16.3c0-9.2-6-16.3-15.3-16.3" class="st0"/><path id="path6470" d="M527.1 71.9h-7.4V91h-14.5V34.7h28.2c12.5 0 19.6 8.3 19.6 18.7 0 9.8-6 15-11.2 16.9L553.3 91h-16.6zm4.1-25h-11.5v12.6h11.5c3.8 0 7-2.4 7-6.3s-3.2-6.3-7-6.3" class="st0"/></g><g id="g6480"><g id="g6478"><path id="path6474" d="M93.5 53.2L60 62.7V48.8l83.2-27.9v12.8c0 .8.4 1.4 1 1.8v10.9l-7.1-2.5-7.8-2.7-3.9 2.4v12.6L158 65l3.9-2V52.5l-15.3-5.3V35.6c.7-.4 1.2-1.2 1.2-2V19.4l27-9.1 4.9-1.6 2.7-.9-8.9-3.8-7.7-3.3-58.6 20.1-54.7-6.4L50 13l-3.7 1.5-.2 1.3-30.2 35L.3 56.1V62l10.6 3.9L25.5 62v-2.7l14.8-4.7v13.3L0 78v13h93.5zm-78.2 3L3.1 60.3v-2.9l12.3-4.1zm144.2 6.1l-2 .9-30-8.3V44.6l1.8-1.1v10zM41.5 49l-22.9 7.7V54l23.3-7.9zM18 51.8l-.3-.2 28.1-32.5-3.4 24.6zm32.6 13.4L43.9 67V53.6l6.8-2.1v13.7zM50 46.1V15l1.6 1.2 3.6 28.2zm6.9-4.5l-3.5-24.7 48.7 5.7-42.7 14.7zm4.6-1.9L165.7 3.9l3.6 1.5L59.8 42.6z" class="st0"/><path id="path6476" d="M162 70.2l-3.4 1.9v8l-29.4-6.5v-12l-33.6-8.4V91h93.5V78zm0 10.7l-1.8-.4v-7.7l1.8-1.1z" class="st0"/></g></g></g></svg>